<svg xmlns="http://www.w3.org/2000/svg" viewBox="0 0 2215.84 600"><defs><style>.cls-1{fill:#7ba839;}.cls-2{fill:#929294;}</style></defs><title>logo</title><g id="Capa_2" data-name="Capa 2"><g id="Capa_1-2" data-name="Capa 1"><g id="_Grupo_" data-name="&lt;Grupo&gt;"><g id="_Grupo_2" data-name="&lt;Grupo&gt;"><path id="_Trazado_" data-name="&lt;Trazado&gt;" class="cls-1" d="M1549.65,600c-60,0-109.7-16.53-142.8-51.73-41.42-37.26-62-93.1-62-165.52V16.56a8.82,8.82,0,0,1,8.27-8.27h111.69c4.11,0,8.21,4.13,8.21,8.27V382.75c0,43.43,6.21,72.42,18.62,89,10.4,14.45,29,22.75,55.9,22.75,37.2,0,74.47-8.3,74.47-109.67V16.56c0-4.14,4.22-8.27,8.32-8.27h111.72c4.11,0,8.3,4.13,8.3,8.27V382.75c0,72.42-20.7,128.26-60,167.59C1657.25,583.47,1607.5,600,1549.65,600Z"/><path id="_Trazado_2" data-name="&lt;Trazado&gt;" class="cls-1" d="M2083.44,600c-84.75,0-155.17-31.06-202.78-86.89-43.39-53.78-68.31-126.25-68.31-213.14s22.75-159.26,68.31-213.06C1928.27,29,1996.52,0,2079.25,0c57.93,0,105.54,14.5,128.32,24.86l2,2.05c4.16,2.1,6.27,4.13,6.27,8.28l-6.27,101.36c0,2.1-2,6.2-4.11,6.2s-2,2.08-4.19,2.08h-4l-4.22-6.19c-2.11-2.1-4.14-2.1-6.1-4.15-20.73-10.36-49.75-24.84-93.14-24.84-45.53,0-80.76,16.55-105.57,47.58-24.83,33.08-39.28,80.71-39.28,140.69s12.46,109.67,39.28,140.71c24.8,33.1,60,47.55,105.57,47.55,41.37,0,74.44-8.22,97.13-26.85l6.33-4.15a6.06,6.06,0,0,1,4-2.07h4.19c2.11,2.07,4.11,4.12,4.11,6.22l6.27,103.46c0,4.11-2.11,6.16-4.22,8.24l-2.05,2.11C2186.93,591.72,2135.16,600,2083.44,600Z"/></g><g id="_Grupo_3" data-name="&lt;Grupo&gt;"><path id="_Trazado_3" data-name="&lt;Trazado&gt;" class="cls-2" d="M128.29,235.84c0,43.45-22.75,68.29-60,68.29-39.34,0-60-22.76-60-68.29V142.76H31v89c0,31,10.35,51.73,39.29,51.73s39.37-20.7,39.37-51.73v-89h22.75v93.08Z"/><path id="_Trazado_4" data-name="&lt;Trazado&gt;" class="cls-2" d="M167.66,186.22h20.61v16.56h0c6.19-12.46,20.64-20.7,37.23-20.7,28.94,0,43.48,18.62,43.48,49.65V300h-20.7V240c0-26.9-6.22-39.3-24.89-41.36-24.72,0-35.12,18.6-35.12,47.59V300H167.66Z"/><path id="_Trazado_compuesto_" data-name="&lt;Trazado compuesto&gt;" class="cls-2" d="M331,159.3h-24.8V136.56H331Zm-22.78,26.91h20.67V300H308.26Z"/><path id="_Trazado_5" data-name="&lt;Trazado&gt;" class="cls-2" d="M420,300H395.18L353.82,186.22h22.75l31,93.07h0l31-93.07H459.3Z"/><path id="_Trazado_compuesto_2" data-name="&lt;Trazado compuesto&gt;" class="cls-2" d="M571,295.86c-8.3,2.07-16.56,8.27-35.18,8.27-41.36,0-60-24.84-60-62,0-33.11,20.64-57.94,53.71-57.94,37.35,0,49.63,26.9,49.63,64.14h-82.7c0,22.75,18.67,37.25,37.26,37.25,14.54,0,31-6.24,35.12-12.41v22.75Zm-14.48-64.13c0-16.52-10.35-31-28.9-31-20.67,0-29.05,16.53-31.1,31Z"/><path id="_Trazado_6" data-name="&lt;Trazado&gt;" class="cls-2" d="M608.28,186.22H629v16.56h0c6.13-12.46,18.62-20.7,29-20.7,6.22,0,10.32,0,14.42,2.05v18.65c-4.1-2.08-8.21-2.08-12.37-2.08-18.65,0-31,18.66-31,47.58V300h-20.7Z"/><path id="_Trazado_7" data-name="&lt;Trazado&gt;" class="cls-2" d="M689,277.27c8.21,6.19,20.7,8.25,26.91,8.25,10.35,0,20.67-4.16,20.67-16.56,0-20.68-49.72-18.6-49.72-51.73,0-24.8,18.62-35.15,41.42-35.15,10.35,0,18.65,2.05,26.88,4.13l-2,18.62c-4.19-2.05-16.59-6.2-22.78-6.2-10.38,0-20.7,4.15-20.7,14.47,0,22.74,49.6,16.55,49.6,53.83,0,24.8-18.62,35.15-39.29,35.15-10.32,0-22.81-2.11-31-6.22Z"/><path id="_Trazado_compuesto_3" data-name="&lt;Trazado compuesto&gt;" class="cls-2" d="M811,159.3H786.2V136.56H811Zm-22.75,26.91H809V300H788.23Z"/><path id="_Trazado_compuesto_4" data-name="&lt;Trazado compuesto&gt;" class="cls-2" d="M931,283.46h0c-6.24,8.27-18.65,18.62-39.28,18.62C856.5,302.07,842,271,842,240s16.59-57.91,49.72-57.91c20.64,0,31,8.24,37.17,18.62h0V132.41h20.73V300H928.91V283.46Zm-35.15,2.07c24.8,0,33-22.76,33-43.45s-10.32-43.44-33-43.44-31.07,20.72-31.07,43.44C862.75,260.72,873.1,285.53,895.87,285.53Z"/><path id="_Trazado_compuesto_5" data-name="&lt;Trazado compuesto&gt;" class="cls-2" d="M993.06,192.43a71.26,71.26,0,0,1,37.23-10.35c33.16,0,45.56,16.55,45.56,47.56V300h-20.67V285.53h0c-4.19,6.2-16.56,16.55-35.18,16.55-24.89,0-41.37-10.35-41.37-35.15,0-29,31-37.28,53.8-37.28h22.75c0-20.68-6.24-28.95-29-28.95-12.34,0-24.77,4.13-33.07,12.4Zm62.12,53.8h-14.54c-12.4,0-39.28,2.05-39.28,22.73,0,12.4,12.43,18.65,20.67,18.65,20.7,0,31-12.44,31-31V246.23Z"/><path id="_Trazado_compuesto_6" data-name="&lt;Trazado compuesto&gt;" class="cls-2" d="M1193.79,283.46h0c-6.25,8.27-18.59,18.62-39.34,18.62-35.18,0-49.66-31-49.66-62.08s16.51-57.91,49.66-57.91c20.75,0,31.1,8.24,37.26,18.62h0V132.41h20.7V300h-20.7V283.46Zm-33.16,2.07c24.92,0,33.16-22.76,33.16-43.45s-10.35-43.44-33.16-43.44-31,20.72-31,43.44C1127.53,260.72,1137.91,285.53,1160.63,285.53Z"/><path id="_Trazado_compuesto_7" data-name="&lt;Trazado compuesto&gt;" class="cls-2" d="M78.62,513.11h0C72.38,521.36,62,529.64,43.5,529.64,12.37,529.64,0,502.76,0,473.81c0-26.92,14.45-51.76,43.5-51.76,18.53,0,28.88,6.24,33,16.58h0V376.57H95.19V525.51H78.62Zm-31,2.07c20.7,0,28.93-20.7,28.93-37.22,0-18.63-10.35-39.33-31.07-39.33s-28.9,18.6-28.9,37.22C18.62,492.42,26.91,515.17,47.61,515.17Z"/><path id="_Trazado_compuesto_8" data-name="&lt;Trazado compuesto&gt;" class="cls-2" d="M198.67,523.46c-6.24,2.05-14.54,6.19-33.16,6.19-35.18,0-53.8-22.77-53.8-55.84,0-31,18.62-51.76,47.61-51.76,33.1,0,45.47,24.83,45.47,58H134.5c0,20.68,16.56,33.1,33.16,33.1,12.29,0,26.8-6.23,31-10.35Zm-12.49-57.94c0-16.53-8.21-29-24.77-29-18.59,0-26.91,14.48-26.91,29Z"/><path id="_Trazado_8" data-name="&lt;Trazado&gt;" class="cls-2" d="M372.43,395.18c-10.4-6.22-20.67-8.33-33.16-8.33-35.09,0-60,26.93-60,62.12,0,37.2,26.91,62,60,62,10.38,0,26.85-2,35.18-8.25l2.11,22.75c-12.43,4.14-26.91,6.19-35.24,6.19-49.63,0-82.67-31-82.67-82.72,0-47.61,35.15-80.69,82.67-80.69,12.49,0,24.8,2.05,35.24,6.2Z"/><path id="_Trazado_compuesto_9" data-name="&lt;Trazado compuesto&gt;" class="cls-2" d="M453.11,409.66c35.12,0,57.87,24.82,57.87,60,0,33.08-24.8,60-57.87,60-35.15,0-57.93-26.88-57.93-60C395.18,434.48,418,409.66,453.11,409.66Zm0,103.44c24.8,0,35.12-22.79,35.12-43.43,0-22.79-12.34-43.49-35.12-43.49S418,446.88,418,469.68C415.79,490.32,428.28,513.11,453.11,513.11Z"/><path id="_Trazado_9" data-name="&lt;Trazado&gt;" class="cls-2" d="M540,411.72h20.67v18.65h0c6.27-12.42,20.7-20.7,37.18-20.7,29,0,43.5,18.63,43.5,49.66v68.26H620.68v-60c0-26.87-6.18-39.27-24.83-41.38-24.83,0-35.18,18.63-35.18,47.62v53.78H540Z"/><path id="_Trazado_compuesto_10" data-name="&lt;Trazado compuesto&gt;" class="cls-2" d="M777.93,521.36c0,35.19-18.67,53.82-60,53.82-12.54,0-22.78-2.05-41.48-8.29l2.05-18.62c16.65,8.28,24.92,10.35,41.42,10.35,22.75,0,35.15-14.48,35.15-39.33V509h0c-8.24,12.36-24.77,18.59-39.25,18.59-33.16,0-49.69-26.9-49.69-55.86s16.53-60,51.8-60c20.61,0,31,8.27,37.15,20.71h0V415.86h18.65v105.5Zm-20.67-49.63c0-24.84-10.38-43.43-33.16-43.43-20.64,0-31,22.75-31,43.43s12.37,41.38,31,41.38A42.3,42.3,0,0,0,757.27,471.73Z"/><path id="_Trazado_10" data-name="&lt;Trazado&gt;" class="cls-2" d="M813.11,411.72h20.67v18.65h0c6.24-12.42,18.62-20.7,29-20.7,6.24,0,10.35,0,14.45,2.05v18.65c-4.11-2.07-8.21-2.07-12.4-2.07-18.65,0-31,18.59-31,47.55v51.74H813.11Z"/><path id="_Trazado_compuesto_11" data-name="&lt;Trazado compuesto&gt;" class="cls-2" d="M989,521.36c-8.29,2.1-16.56,8.28-35.12,8.28-41.45,0-60.07-24.82-60.07-62.08,0-33.08,20.7-57.9,53.85-57.9,37.23,0,49.63,26.9,49.63,64.14H914.46c0,22.75,18.62,37.2,37.15,37.2,14.6,0,31.07-6.19,35.27-12.4v22.75Zm-14.45-62c0-16.56-10.35-31-29-31-20.75,0-29,16.52-31.07,31Z"/><path id="_Trazado_11" data-name="&lt;Trazado&gt;" class="cls-2" d="M1017.92,504.83c8.21,6.19,20.7,8.28,26.91,8.28,10.35,0,20.7-4.11,20.7-16.55,0-20.71-49.75-18.6-49.75-51.74,0-24.83,18.73-35.15,41.45-35.15,10.32,0,18.62,2.05,26.88,4.12l-2,18.65c-4.19-2.07-16.56-6.24-22.78-6.24-10.38,0-20.7,4.18-20.7,14.51,0,22.76,49.63,16.53,49.63,53.78,0,24.82-18.62,35.17-39.31,35.17-10.32,0-22.81-2.05-31-6.19Z"/><path id="_Trazado_compuesto_12" data-name="&lt;Trazado compuesto&gt;" class="cls-2" d="M1164.79,409.66c35.24,0,57.93,24.82,57.93,60,0,33.08-24.8,60-57.93,60-35.15,0-57.9-26.88-57.9-60C1106.89,434.48,1129.64,409.66,1164.79,409.66Zm0,103.44c24.77,0,35.24-22.79,35.24-43.43,0-22.79-12.49-43.49-35.24-43.49s-35.15,20.7-35.15,43.49C1127.53,490.32,1140,513.11,1164.79,513.11Z"/></g></g></g></g></svg>